<svg id="visual" viewBox="0 0 900 600" width="900" height="600" xmlns="http://www.w3.org/2000/svg" xmlns:xlink="http://www.w3.org/1999/xlink" version="1.1"><rect x="0" y="0" width="900" height="600" fill="#140021"></rect><path d="M0 253L129 253L129 322L257 322L257 289L386 289L386 280L514 280L514 285L643 285L643 311L771 311L771 358L900 358L900 364L900 601L900 601L771 601L771 601L643 601L643 601L514 601L514 601L386 601L386 601L257 601L257 601L129 601L129 601L0 601Z" fill="#9900ff"></path><path d="M0 392L129 392L129 426L257 426L257 369L386 369L386 419L514 419L514 419L643 419L643 457L771 457L771 458L900 458L900 373L900 601L900 601L771 601L771 601L643 601L643 601L514 601L514 601L386 601L386 601L257 601L257 601L129 601L129 601L0 601Z" fill="#7700c6"></path><path d="M0 501L129 501L129 536L257 536L257 465L386 465L386 505L514 505L514 482L643 482L643 513L771 513L771 526L900 526L900 487L900 601L900 601L771 601L771 601L643 601L643 601L514 601L514 601L386 601L386 601L257 601L257 601L129 601L129 601L0 601Z" fill="#560090"></path></svg>